<svg width="9" height="5" viewBox="0 0 9 5" fill="none" xmlns="http://www.w3.org/2000/svg">
<path d="M8.32037 0.570312C8.37246 0.622396 8.3985 0.682291 8.3985 0.75C8.3985 0.817708 8.37246 0.877604 8.32037 0.929687L4.67975 4.57031C4.62767 4.6224 4.56777 4.64844 4.50006 4.64844C4.43235 4.64844 4.37246 4.6224 4.32037 4.57031L0.679749 0.929687C0.627665 0.877604 0.601624 0.817708 0.601624 0.75C0.601624 0.682291 0.627665 0.622396 0.679749 0.570312L1.07037 0.179687C1.12246 0.127604 1.18235 0.101562 1.25006 0.101562C1.31777 0.101562 1.37767 0.127604 1.42975 0.179687L4.50006 3.25L7.57037 0.179687C7.62246 0.127604 7.68235 0.101562 7.75006 0.101562C7.81777 0.101562 7.87767 0.127604 7.92975 0.179687L8.32037 0.570312Z" fill="#352E31"/>
</svg>
