<svg width="12" height="10" viewBox="0 0 12 10" fill="none" xmlns="http://www.w3.org/2000/svg">
<path d="M4.64292 8.80357C4.64292 8.82292 4.64534 8.87128 4.65017 8.94866C4.65501 9.02604 4.65501 9.09133 4.65017 9.14453C4.65017 9.19289 4.64292 9.24851 4.62841 9.31138C4.61874 9.37426 4.59456 9.42262 4.55586 9.45647C4.52201 9.48549 4.47365 9.5 4.41078 9.5H2.08935C1.51383 9.5 1.02052 9.29687 0.609436 8.89062C0.203186 8.47954 6.10352e-05 7.98624 6.10352e-05 7.41071V2.30357C6.10352e-05 1.72805 0.203186 1.23716 0.609436 0.830915C1.02052 0.419829 1.51383 0.214285 2.08935 0.214285H4.41078C4.47365 0.214285 4.52685 0.238467 4.57037 0.28683C4.61874 0.330357 4.64292 0.383556 4.64292 0.446428C4.64292 0.465773 4.64534 0.514137 4.65017 0.591518C4.65501 0.668898 4.65501 0.734188 4.65017 0.787388C4.65017 0.835751 4.64292 0.891369 4.62841 0.954241C4.61874 1.01711 4.59456 1.06548 4.55586 1.09933C4.52201 1.12835 4.47365 1.14286 4.41078 1.14286H2.08935C1.77015 1.14286 1.4969 1.25651 1.26959 1.48382C1.04229 1.71112 0.928633 1.98437 0.928633 2.30357V7.41071C0.928633 7.72991 1.04229 8.00316 1.26959 8.23047C1.4969 8.45778 1.77015 8.57143 2.08935 8.57143H4.17863C4.18347 8.57143 4.21007 8.57143 4.25843 8.57143C4.30679 8.57143 4.33823 8.57143 4.35274 8.57143C4.36725 8.57143 4.39385 8.57385 4.43254 8.57868C4.47607 8.58352 4.50508 8.59077 4.51959 8.60045C4.5341 8.61012 4.55345 8.62463 4.57763 8.64397C4.60181 8.65848 4.61874 8.68025 4.62841 8.70926C4.63808 8.73344 4.64292 8.76488 4.64292 8.80357ZM11.2372 4.53069C11.3291 4.62258 11.3751 4.7314 11.3751 4.85714C11.3751 4.98289 11.3291 5.0917 11.2372 5.18359L7.2908 9.13002C7.19891 9.22191 7.09009 9.26786 6.96435 9.26786C6.8386 9.26786 6.72979 9.22191 6.6379 9.13002C6.54601 9.03813 6.50006 8.92932 6.50006 8.80357V6.71429H3.25006C3.12432 6.71429 3.0155 6.66834 2.92361 6.57645C2.83172 6.48456 2.78578 6.37574 2.78578 6.25V3.46429C2.78578 3.33854 2.83172 3.22972 2.92361 3.13783C3.0155 3.04594 3.12432 3 3.25006 3H6.50006V0.910714C6.50006 0.78497 6.54601 0.676153 6.6379 0.584263C6.72979 0.492373 6.8386 0.446428 6.96435 0.446428C7.09009 0.446428 7.19891 0.492373 7.2908 0.584263L11.2372 4.53069Z" fill="#535356"/>
</svg>
