<svg width="10" height="12" viewBox="0 0 10 12" fill="none" xmlns="http://www.w3.org/2000/svg">
<path d="M9.28578 9.50614C9.28578 10.0333 9.13343 10.4855 8.82874 10.8627C8.52889 11.24 8.16617 11.4286 7.74057 11.4286H1.54526C1.11967 11.4286 0.754525 11.24 0.449838 10.8627C0.149987 10.4855 6.10352e-05 10.0333 6.10352e-05 9.50614C6.10352e-05 9.09505 0.0194063 8.70815 0.0580968 8.34542C0.101624 7.97786 0.179004 7.6103 0.29024 7.24275C0.401475 6.87035 0.541728 6.55357 0.710999 6.29241C0.885106 6.02641 1.11241 5.8112 1.39292 5.64676C1.67826 5.47749 2.00471 5.39286 2.37227 5.39286C3.00583 6.0119 3.76271 6.32143 4.64292 6.32143C5.52313 6.32143 6.28001 6.0119 6.91357 5.39286C7.28113 5.39286 7.60516 5.47749 7.88566 5.64676C8.17101 5.8112 8.39831 6.02641 8.56758 6.29241C8.74169 6.55357 8.88436 6.87035 8.9956 7.24275C9.10683 7.6103 9.18179 7.97786 9.22049 8.34542C9.26401 8.70815 9.28578 9.09505 9.28578 9.50614ZM6.60888 1.10547C7.15538 1.64714 7.42863 2.30246 7.42863 3.07143C7.42863 3.8404 7.15538 4.49814 6.60888 5.04464C6.06721 5.58631 5.41189 5.85714 4.64292 5.85714C3.87395 5.85714 3.21621 5.58631 2.6697 5.04464C2.12804 4.49814 1.8572 3.8404 1.8572 3.07143C1.8572 2.30246 2.12804 1.64714 2.6697 1.10547C3.21621 0.558965 3.87395 0.285714 4.64292 0.285714C5.41189 0.285714 6.06721 0.558965 6.60888 1.10547Z" fill="#535356"/>
</svg>
