<svg width="6" height="13" viewBox="0 0 6 13" fill="none" xmlns="http://www.w3.org/2000/svg">
<path fill-rule="evenodd" clip-rule="evenodd" d="M1.32038 6.55076V12.835C1.32038 12.9239 1.39286 13 1.48424 13H3.80357C3.89181 13 3.96744 12.927 3.96744 12.835V6.44924H5.64706C5.73214 6.44924 5.80147 6.38263 5.80777 6.30015L5.96849 4.37457C5.97794 4.2794 5.90231 4.19693 5.80777 4.19693H3.96429V2.83285C3.96429 2.51245 4.22269 2.25232 4.54097 2.25232H5.83613C5.92752 2.25232 6 2.17936 6 2.08736V0.164959C5.99685 0.0729624 5.92437 0 5.83613 0H3.64601C2.36345 0 1.32038 1.04685 1.32038 2.34114V4.19693H0.163866C0.072479 4.19693 0 4.26989 0 4.35871V6.28429C0 6.37311 0.072479 6.44924 0.163866 6.44924H1.32353V6.55076H1.32038Z" fill="#F7F9F9"/>
</svg>
