<svg width="14" height="14" viewBox="0 0 14 14" fill="none" xmlns="http://www.w3.org/2000/svg">
<path d="M4.6875 4.38222H7.31702V5.58838H7.35193C7.72037 4.89416 8.61239 4.16504 9.94654 4.16504C12.7234 4.16504 13.2354 5.99172 13.2354 8.36525V13.2015H10.4973V8.91597C10.4973 7.89209 10.4779 6.57735 9.07391 6.57735C7.64668 6.57735 7.42949 7.69042 7.42949 8.84228V13.2054H4.6875V4.38222Z" fill="#F7F9F9"/>
<path d="M0.217185 4.38249H2.96303V13.2018H0.217185V4.38249ZM1.59011 0C2.4666 0 3.18021 0.713609 3.18021 1.59011C3.18021 2.4666 2.47048 3.18021 1.59011 3.18021C0.709731 3.18021 0 2.4666 0 1.59011C0 0.713609 0.709731 0 1.59011 0Z" fill="#F7F9F9"/>
</svg>
