<svg width="14" height="12" viewBox="0 0 14 12" fill="none" xmlns="http://www.w3.org/2000/svg">
<path d="M13.7705 1.43982C13.3355 1.64823 12.7703 1.77621 12.3045 1.86031C12.5272 1.82009 12.8114 1.39228 12.9416 1.21678C13.1403 0.953513 13.2841 0.65003 13.38 0.324609C13.3903 0.299014 13.3903 0.266106 13.3663 0.247824C13.3355 0.236855 13.3115 0.240511 13.2876 0.255137C12.7635 0.554964 12.2223 0.770692 11.6469 0.924262C11.5989 0.935231 11.5612 0.924262 11.5338 0.891354C11.4859 0.832852 11.4414 0.778005 11.39 0.734128C11.1468 0.514743 10.8899 0.342891 10.5953 0.214916C10.2117 0.0467209 9.79041 -0.0227511 9.37938 0.00650031C8.97863 0.0357517 8.5813 0.156414 8.22508 0.35386C7.86886 0.554964 7.54689 0.829195 7.29342 1.16559C7.02968 1.51295 6.83787 1.92247 6.73854 2.35392C6.64263 2.77076 6.64948 3.18759 6.70771 3.60808C6.71798 3.67755 6.71113 3.68852 6.65291 3.67755C4.40254 3.32653 2.53922 2.46727 1.02527 0.624436C0.960191 0.547651 0.922514 0.547651 0.86771 0.631748C0.206643 1.69211 0.525189 3.39235 1.35409 4.22967C1.4637 4.34302 1.57673 4.45271 1.70004 4.55509C1.65551 4.56606 1.10405 4.50024 0.614244 4.22967C0.549165 4.18579 0.514913 4.21139 0.511488 4.29183C0.504637 4.40518 0.514913 4.51121 0.528614 4.63553C0.655347 5.71052 1.35409 6.70141 2.3063 7.08899C2.41933 7.14018 2.54607 7.18406 2.66595 7.206C2.45016 7.25718 2.2241 7.29375 1.60071 7.24256C1.52193 7.22793 1.49453 7.26815 1.52193 7.3486C1.99118 8.71244 3.00162 9.1183 3.7586 9.34866C3.86135 9.36694 3.96068 9.36694 4.06344 9.39254C4.05659 9.4035 4.04974 9.4035 4.04631 9.41082C3.79627 9.82034 2.92284 10.1238 2.51867 10.2737C1.78224 10.548 0.977317 10.6723 0.199793 10.5918C0.0764848 10.5736 0.0490831 10.5736 0.0148309 10.5918C-0.0194213 10.6138 0.0114057 10.6467 0.0490831 10.6796C0.206643 10.7929 0.367628 10.8917 0.532039 10.9867C1.0287 11.2683 1.54248 11.4913 2.08366 11.6485C4.87179 12.4712 8.01272 11.8679 10.1055 9.64483C11.7496 7.90071 12.3251 5.49845 12.3251 3.08886C12.3251 2.9938 12.4278 2.94261 12.4929 2.89142C12.9211 2.54771 13.4383 2.13819 13.7568 1.68114C13.8287 1.57876 14 1.48735 14 1.45079C14 1.44347 14 1.43982 14 1.43982C14 1.40325 13.8287 1.41422 13.7705 1.43982Z" fill="#F7F9F9"/>
</svg>
