<svg width="174" height="22" viewBox="0 0 174 22" fill="none" xmlns="http://www.w3.org/2000/svg">
<path d="M4.56008 13.5208L13.0768 5.1656C13.516 4.73497 14.1081 4.49646 14.7229 4.50252C15.3377 4.50858 15.925 4.75871 16.3556 5.19791L12.4906 1.25303C12.06 0.813955 11.4727 0.563911 10.8579 0.557852C10.2432 0.551793 9.6511 0.790215 9.21191 1.22072L0.694893 9.57593C0.256068 10.0068 0.00616818 10.5944 0.000112657 11.2095C-0.00594287 11.8247 0.232341 12.4171 0.662599 12.8565L4.52877 16.8024C4.09836 16.363 3.85995 15.7706 3.86596 15.1555C3.87197 14.5403 4.12191 13.9526 4.56082 13.5218" fill="#FCBA1E"/>
<path d="M7.80808 16.8342L16.3239 8.47904C16.7628 8.04819 17.0127 7.46056 17.0187 6.84537C17.0247 6.23018 16.7863 5.63778 16.3559 5.19843L20.2218 9.14256C20.6522 9.58194 20.8906 10.1743 20.8846 10.7895C20.8785 11.4047 20.6286 11.9923 20.1898 12.4232L11.6738 20.7791C11.2346 21.2097 10.6426 21.4481 10.0278 21.4421C9.41297 21.4361 8.82571 21.1861 8.39505 20.7471L4.52838 16.8022C4.95898 17.2413 5.54627 17.4914 6.1611 17.4974C6.77594 17.5035 7.368 17.2649 7.8071 16.8342" fill="#DF9026"/>
<path d="M20.2214 9.14208L16.3554 5.1972C16.7858 5.63659 17.0242 6.22901 17.0181 6.8442C17.0121 7.4594 16.7621 8.047 16.3231 8.47782L16.0867 8.70968L18.3301 10.9977C18.7603 11.4372 18.9986 12.0296 18.9925 12.6447C18.9865 13.2599 18.7366 13.8475 18.2978 14.2783L20.1886 12.4237C20.6275 11.9929 20.8775 11.4053 20.8836 10.7901C20.8896 10.1749 20.6512 9.58245 20.2209 9.14307" fill="#AD722A"/>
<path d="M10.5971 3.10979L12.8405 5.39783L13.0769 5.16572C13.516 4.73512 14.1081 4.49661 14.7229 4.50262C15.3377 4.50864 15.925 4.75868 16.3556 5.19778L12.4897 1.25291C12.059 0.813863 11.4717 0.563863 10.857 0.55785C10.2422 0.551837 9.65012 0.790303 9.21096 1.22084L8.97455 1.45295L10.5971 3.10979Z" fill="#FFC841"/>
<path d="M24.3968 13.7307V8.67861C24.3968 6.11763 25.6334 4.53448 30.0401 4.53448C34.4469 4.53448 35.6835 6.07107 35.6835 8.63206V13.6609C35.6835 16.2219 34.4469 17.805 30.0401 17.805C25.6334 17.805 24.3968 16.2917 24.3968 13.7307ZM33.5251 13.4281V8.88815C33.5251 6.93249 32.7831 6.28061 30.0401 6.28061C27.2747 6.28061 26.5327 6.97905 26.5327 8.91143V13.4746C26.5327 15.4303 27.2747 16.0822 30.0401 16.0822C32.7831 16.0822 33.5251 15.3837 33.5251 13.4281Z" fill="#FFC221"/>
<path d="M37.3474 15.8958L38.2692 15.8725V6.55984L37.3474 6.49V4.81372H43.328C46.4307 4.81372 47.5998 5.58201 47.5998 7.3747V8.888C47.5998 10.3082 46.7454 11.3093 44.9468 11.449C46.4532 11.5887 47.5099 11.8448 47.6448 13.3115L47.8696 15.8492L48.8589 15.8958V17.5488H45.981C45.8686 17.4324 45.7787 17.316 45.7562 16.9435L45.5313 13.9168C45.4414 12.5898 44.5421 12.2406 42.3612 12.2406H40.4051V15.8259L41.3269 15.8492V17.5255H37.3474V15.8958ZM42.9008 10.5643C44.9243 10.5643 45.4864 10.1219 45.4864 9.00441V7.98002C45.4864 6.95563 45.1042 6.51328 42.9008 6.51328H40.4276V10.541H42.9008V10.5643Z" fill="#FFC221"/>
<path d="M50.0954 13.7307V8.67861C50.0954 6.11763 51.332 4.53448 55.7388 4.53448C60.1455 4.53448 61.3821 6.07107 61.3821 8.63206V13.6609C61.3821 16.2219 60.1455 17.805 55.7388 17.805C51.332 17.805 50.0954 16.2917 50.0954 13.7307ZM59.2237 13.4281V8.88815C59.2237 6.93249 58.4817 6.28061 55.7388 6.28061C52.9733 6.28061 52.2314 6.97905 52.2314 8.91143V13.4746C52.2314 15.4303 52.9733 16.0822 55.7388 16.0822C58.4817 16.0822 59.2237 15.3837 59.2237 13.4281Z" fill="#FFC221"/>
<path d="M68.0614 16.1095L69.0614 16.0872V6.33481L68.0614 6.31249V5.19666H73.3723C76.461 5.19666 77.5277 5.86616 77.5277 7.94161V9.48146C77.5277 11.5569 76.1499 12.3157 73.3723 12.3157H70.528V16.0872L71.5501 16.1095V17.2254H68.0614V16.1095ZM73.1056 11.1775C75.4611 11.1775 76.0833 10.5973 76.0833 9.30293V8.07551C76.0833 6.78114 75.55 6.33481 73.1056 6.33481H70.528V11.1775H73.1056Z" fill="#9DA4A7"/>
<path d="M78.3646 14.9052V14.1018C78.3646 12.4281 79.3646 11.8925 81.7867 11.3122L84.9199 10.5311V9.52689C84.9199 8.67885 84.4977 8.18788 82.3867 8.18788C80.2757 8.18788 79.809 8.65653 79.809 9.45994C79.809 9.63847 79.8979 10.1518 79.8979 10.1518H78.8979C78.8979 10.1518 78.5646 9.817 78.5646 9.1475C78.5646 7.85313 79.4312 7.09436 82.52 7.09436C85.6088 7.09436 86.3198 7.85313 86.3198 9.4153V16.088L87.2753 16.1103V17.1592H85.3421C85.1866 17.1592 85.0754 17.0476 85.0754 16.8691L84.9866 15.7756H84.9643C84.8755 16.4004 84.2755 17.427 81.8534 17.427C79.5201 17.4716 78.3646 16.4897 78.3646 14.9052ZM84.9199 14.7267V11.5354L82.2533 12.2272C80.609 12.6735 79.7646 12.986 79.7646 14.1018V14.7936C79.7646 15.8648 80.4979 16.4228 82.2533 16.4228C84.2755 16.4004 84.9199 15.4631 84.9199 14.7267Z" fill="#9DA4A7"/>
<path d="M88.2547 16.1103L89.2547 16.088V8.50031L88.2547 8.478V7.36216H90.2546C90.4324 7.36216 90.5213 7.47374 90.5435 7.65228L90.6102 9.12518H90.6324C90.7435 7.83081 91.6323 7.09436 92.7656 7.09436C93.1878 7.09436 93.4545 7.18363 93.61 7.25058V8.58958C93.4545 8.478 93.0989 8.38873 92.6545 8.38873C91.499 8.38873 90.6324 9.08055 90.6102 10.8659V16.088L91.6768 16.1103V17.1592H88.2325V16.1103H88.2547Z" fill="#9DA4A7"/>
<path d="M119.916 16.1103L120.916 16.088V8.50031L119.916 8.478V7.36216H121.916C122.094 7.36216 122.182 7.47374 122.205 7.65228L122.271 9.12518H122.294C122.405 7.83081 123.294 7.09436 124.427 7.09436C124.849 7.09436 125.116 7.18363 125.271 7.25058V8.58958C125.116 8.478 124.76 8.38873 124.316 8.38873C123.16 8.38873 122.294 9.08055 122.271 10.8659V16.088L123.338 16.1103V17.1592H119.894V16.1103H119.916Z" fill="#9DA4A7"/>
<path d="M95.723 15.1053V8.36563H94.2564V7.31674L95.723 7.24979V5.53141L96.9452 5.19666H97.123V7.27211H99.5006V8.38794H97.123V14.9937C97.123 15.864 97.5452 16.2211 98.3229 16.2211C98.9229 16.2211 99.3229 16.0203 99.5673 15.8417L99.6562 16.8237C99.4118 17.0468 98.834 17.2923 98.034 17.2923C96.6341 17.2923 95.723 16.7344 95.723 15.1053Z" fill="#9DA4A7"/>
<path d="M108.972 8.85995C109.099 9.58321 109.061 9.62035 109.061 10.4221V16.0682L110.083 16.0906V17.1394H106.639V16.0906L107.661 16.0682V9.90883C107.661 8.6591 107.061 8.19045 105.372 8.19045C103.684 8.19045 102.617 8.77068 102.617 10.4444V16.0906L103.639 16.1129V17.1618H100.284V16.1129L101.217 16.0906V8.50288L100.284 8.48056V7.36473H102.284C102.439 7.36473 102.55 7.47631 102.55 7.65484L102.595 8.83763H102.617C102.906 7.65484 103.772 7.09693 105.817 7.09693C107.772 7.05229 108.75 7.5879 108.972 8.85995Z" fill="#9DA4A7"/>
<path d="M115.041 7.51611C111.892 7.51611 110.873 8.78412 110.873 10.7314V14.0146C110.873 16.1884 111.915 17.2526 115.134 17.2526C117.936 17.2526 119.047 16.211 119.047 14.8524V14.6939H117.774V14.7618C117.774 15.5091 117.125 16.211 115.157 16.211C112.934 16.211 112.216 15.4638 112.216 13.9467V13.0184H118.769C118.931 13.0184 119.047 12.9051 119.047 12.7466V10.7088C119.047 8.60298 118.167 7.51611 115.041 7.51611ZM117.75 12.1579H112.239V10.7314C112.239 9.44076 112.887 8.51241 115.087 8.51241C117.287 8.51241 117.774 9.30491 117.774 10.7314V12.1579H117.75Z" fill="#9DA4A7"/>
<path d="M128.585 16.1095L129.585 16.0872V6.33481L128.585 6.31249V5.19666H133.896C136.984 5.19666 138.051 5.86616 138.051 7.94161V9.48146C138.051 11.5569 136.673 12.3157 133.896 12.3157H131.051V16.0872L132.074 16.1095V17.2254H128.585V16.1095ZM133.629 11.1775C135.985 11.1775 136.607 10.5973 136.607 9.30293V8.07551C136.607 6.78114 136.073 6.33481 133.629 6.33481H131.051V11.1775H133.629Z" fill="#9DA4A7"/>
<path d="M170.231 16.1141L171.187 16.0918V5.49136L170.098 5.46905V4.35321H172.298C172.453 4.35321 172.564 4.48711 172.564 4.66564V16.1141L173.52 16.1364V17.1853H170.209V16.1141H170.231Z" fill="#9DA4A7"/>
<path d="M160.398 14.9052V14.1018C160.398 12.4281 161.398 11.8925 163.82 11.3122L166.954 10.5311V9.52689C166.954 8.67885 166.531 8.18788 164.42 8.18788C162.309 8.18788 161.843 8.65653 161.843 9.45994C161.843 9.63847 161.932 10.1518 161.932 10.1518H160.932C160.932 10.1518 160.598 9.817 160.598 9.1475C160.598 7.85313 161.465 7.09436 164.554 7.09436C167.642 7.09436 168.354 7.85313 168.354 9.4153V16.088L169.309 16.1103V17.1592H167.376C167.22 17.1592 167.109 17.0476 167.109 16.8691L167.02 15.7756H166.998C166.909 16.4004 166.309 17.427 163.887 17.427C161.554 17.4716 160.398 16.4897 160.398 14.9052ZM166.954 14.7267V11.5354L164.287 12.2272C162.643 12.6735 161.798 12.986 161.798 14.1018V14.7936C161.798 15.8648 162.532 16.4228 164.287 16.4228C166.309 16.4004 166.954 15.4631 166.954 14.7267Z" fill="#9DA4A7"/>
<path d="M155.689 15.1053V8.36563H154.222V7.31674L155.689 7.24979V5.53141L156.911 5.19666H157.089V7.27211H159.466V8.38794H157.089V14.9937C157.089 15.864 157.511 16.2211 158.289 16.2211C158.889 16.2211 159.289 16.0203 159.533 15.8417L159.622 16.8237C159.377 17.0468 158.8 17.2923 158 17.2923C156.6 17.2923 155.689 16.7344 155.689 15.1053Z" fill="#9DA4A7"/>
<path d="M138.618 13.9902V10.5088C138.618 8.45568 139.663 7.09436 143.018 7.09436C146.351 7.09436 147.396 8.2102 147.396 10.5088V13.9902C147.396 16.0434 146.351 17.427 143.018 17.427C139.641 17.427 138.618 16.3112 138.618 13.9902ZM145.974 13.8787V10.6427C145.974 8.99128 145.329 8.23251 142.996 8.23251C140.685 8.23251 139.996 9.21445 139.996 10.6427V13.8787C139.996 15.5078 140.685 16.2889 142.996 16.2889C145.329 16.2889 145.974 15.2846 145.974 13.8787Z" fill="#9DA4A7"/>
<path d="M148.129 16.1103L149.129 16.088V8.50031L148.129 8.478V7.36216H150.129C150.307 7.36216 150.396 7.47374 150.418 7.65228L150.485 9.12518H150.507C150.618 7.83081 151.507 7.09436 152.64 7.09436C153.062 7.09436 153.329 7.18363 153.485 7.25058V8.58958C153.329 8.478 152.974 8.38873 152.529 8.38873C151.374 8.38873 150.507 9.08055 150.485 10.8659V16.088L151.551 16.1103V17.1592H148.107V16.1103H148.129Z" fill="#9DA4A7"/>
</svg>
